<svg xmlns="http://www.w3.org/2000/svg" viewBox="0 0 80 40">
  <defs>
    <linearGradient id="blockGrad" x1="0%" y1="0%" x2="0%" y2="100%">
      <stop offset="0%" style="stop-color:#5DADE2;stop-opacity:1" />
      <stop offset="100%" style="stop-color:#2E86AB;stop-opacity:1" />
    </linearGradient>
    <filter id="shadow" x="-20%" y="-20%" width="140%" height="140%">
      <feDropShadow dx="0" dy="2" stdDeviation="2" flood-opacity="0.3"/>
    </filter>
  </defs>
  <rect x="2" y="2" width="76" height="36" rx="4" ry="4" fill="url(#blockGrad)" filter="url(#shadow)"/>
  <rect x="2" y="2" width="76" height="8" rx="4" ry="4" fill="rgba(255,255,255,0.2)"/>
  <rect x="8" y="12" width="12" height="10" rx="1" fill="rgba(255,255,255,0.3)"/>
  <rect x="24" y="12" width="12" height="10" rx="1" fill="rgba(255,255,255,0.3)"/>
  <rect x="44" y="12" width="12" height="10" rx="1" fill="rgba(255,255,255,0.3)"/>
  <rect x="60" y="12" width="12" height="10" rx="1" fill="rgba(255,255,255,0.3)"/>
  <rect x="8" y="26" width="12" height="10" rx="1" fill="rgba(255,255,255,0.3)"/>
  <rect x="24" y="26" width="12" height="10" rx="1" fill="rgba(255,255,255,0.3)"/>
  <rect x="44" y="26" width="12" height="10" rx="1" fill="rgba(255,255,255,0.3)"/>
  <rect x="60" y="26" width="12" height="10" rx="1" fill="rgba(255,255,255,0.3)"/>
</svg>
