<svg xmlns="http://www.w3.org/2000/svg" viewBox="0 0 100 100">
  <defs>
    <linearGradient id="cityBlockGrad" x1="0%" y1="0%" x2="0%" y2="100%">
      <stop offset="0%" style="stop-color:#5DADE2"/>
      <stop offset="50%" style="stop-color:#3498DB"/>
      <stop offset="100%" style="stop-color:#2980B9"/>
    </linearGradient>
    <linearGradient id="windowGlow" x1="0%" y1="0%" x2="0%" y2="100%">
      <stop offset="0%" style="stop-color:#FFF9C4"/>
      <stop offset="100%" style="stop-color:#FFE082"/>
    </linearGradient>
  </defs>
  <!-- Main block body -->
  <rect x="2" y="2" width="96" height="96" rx="4" fill="url(#cityBlockGrad)" stroke="#1A5276" stroke-width="2"/>
  <!-- Top highlight -->
  <rect x="2" y="2" width="96" height="15" rx="4" fill="rgba(255,255,255,0.25)"/>
  <!-- Windows Row 1 -->
  <rect x="8" y="20" width="18" height="25" rx="2" fill="url(#windowGlow)" stroke="#2471A3" stroke-width="1.5"/>
  <line x1="17" y1="20" x2="17" y2="45" stroke="#2471A3" stroke-width="1"/>
  <line x1="8" y1="32" x2="26" y2="32" stroke="#2471A3" stroke-width="1"/>
  <rect x="41" y="20" width="18" height="25" rx="2" fill="url(#windowGlow)" stroke="#2471A3" stroke-width="1.5"/>
  <line x1="50" y1="20" x2="50" y2="45" stroke="#2471A3" stroke-width="1"/>
  <line x1="41" y1="32" x2="59" y2="32" stroke="#2471A3" stroke-width="1"/>
  <rect x="74" y="20" width="18" height="25" rx="2" fill="url(#windowGlow)" stroke="#2471A3" stroke-width="1.5"/>
  <line x1="83" y1="20" x2="83" y2="45" stroke="#2471A3" stroke-width="1"/>
  <line x1="74" y1="32" x2="92" y2="32" stroke="#2471A3" stroke-width="1"/>
  <!-- Windows Row 2 -->
  <rect x="8" y="55" width="18" height="25" rx="2" fill="url(#windowGlow)" stroke="#2471A3" stroke-width="1.5"/>
  <line x1="17" y1="55" x2="17" y2="80" stroke="#2471A3" stroke-width="1"/>
  <line x1="8" y1="67" x2="26" y2="67" stroke="#2471A3" stroke-width="1"/>
  <rect x="41" y="55" width="18" height="25" rx="2" fill="url(#windowGlow)" stroke="#2471A3" stroke-width="1.5"/>
  <line x1="50" y1="55" x2="50" y2="80" stroke="#2471A3" stroke-width="1"/>
  <line x1="41" y1="67" x2="59" y2="67" stroke="#2471A3" stroke-width="1"/>
  <rect x="74" y="55" width="18" height="25" rx="2" fill="url(#windowGlow)" stroke="#2471A3" stroke-width="1.5"/>
  <line x1="83" y1="55" x2="83" y2="80" stroke="#2471A3" stroke-width="1"/>
  <line x1="74" y1="67" x2="92" y2="67" stroke="#2471A3" stroke-width="1"/>
  <!-- Decorative balcony rails -->
  <rect x="30" y="48" width="8" height="2" rx="1" fill="#2471A3"/>
  <rect x="62" y="48" width="8" height="2" rx="1" fill="#2471A3"/>
  <!-- Bottom trim -->
  <rect x="2" y="90" width="96" height="8" rx="2" fill="#1A5276"/>
</svg>
