<svg xmlns="http://www.w3.org/2000/svg" viewBox="0 0 400 200">
  <defs>
    <linearGradient id="building2" x1="0%" y1="0%" x2="0%" y2="100%">
      <stop offset="0%" style="stop-color:#34495e;stop-opacity:0.8" />
      <stop offset="100%" style="stop-color:#2c3e50;stop-opacity:0.8" />
    </linearGradient>
  </defs>
  <!-- Mid-distance buildings with windows -->
  <g fill="url(#building2)">
    <rect x="10" y="80" width="45" height="120"/>
    <rect x="60" y="60" width="35" height="140"/>
    <rect x="100" y="90" width="50" height="110"/>
    <rect x="155" y="50" width="40" height="150"/>
    <rect x="200" y="70" width="45" height="130"/>
    <rect x="250" y="85" width="35" height="115"/>
    <rect x="290" y="55" width="50" height="145"/>
    <rect x="345" y="75" width="40" height="125"/>
  </g>
  <!-- Windows -->
  <g fill="rgba(255,220,100,0.6)">
    <rect x="18" y="90" width="6" height="8"/>
    <rect x="30" y="90" width="6" height="8"/>
    <rect x="42" y="90" width="6" height="8"/>
    <rect x="18" y="110" width="6" height="8"/>
    <rect x="42" y="130" width="6" height="8"/>
    <rect x="68" y="70" width="6" height="8"/>
    <rect x="80" y="90" width="6" height="8"/>
    <rect x="68" y="110" width="6" height="8"/>
    <rect x="163" y="60" width="6" height="8"/>
    <rect x="175" y="80" width="6" height="8"/>
    <rect x="163" y="100" width="6" height="8"/>
    <rect x="298" y="65" width="6" height="8"/>
    <rect x="318" y="85" width="6" height="8"/>
    <rect x="298" y="105" width="6" height="8"/>
  </g>
</svg>
