<svg xmlns="http://www.w3.org/2000/svg" viewBox="0 0 400 800" preserveAspectRatio="xMidYMid slice">
  <!-- Medium distance buildings -->
  <g fill="#2d2d5a">
    <rect x="0" y="480" width="50" height="320"/>
    <rect x="45" y="450" width="40" height="350"/>
    <rect x="80" y="500" width="35" height="300"/>
    <rect x="110" y="420" width="55" height="380"/>
    <rect x="160" y="470" width="30" height="330"/>
    <rect x="185" y="440" width="45" height="360"/>
    <rect x="225" y="490" width="35" height="310"/>
    <rect x="255" y="400" width="60" height="400"/>
    <rect x="310" y="460" width="40" height="340"/>
    <rect x="345" y="430" width="55" height="370"/>
  </g>
  <!-- Building details - windows -->
  <g fill="#FFE082" opacity="0.5">
    <!-- Building 1 windows -->
    <rect x="10" y="500" width="8" height="10"/>
    <rect x="25" y="500" width="8" height="10"/>
    <rect x="10" y="520" width="8" height="10"/>
    <rect x="25" y="520" width="8" height="10"/>
    <rect x="10" y="540" width="8" height="10"/>
    <rect x="25" y="540" width="8" height="10"/>
    <!-- Building 2 windows -->
    <rect x="55" y="470" width="8" height="10"/>
    <rect x="68" y="470" width="8" height="10"/>
    <rect x="55" y="490" width="8" height="10"/>
    <rect x="68" y="490" width="8" height="10"/>
    <!-- Building 3 windows -->
    <rect x="120" y="440" width="10" height="12"/>
    <rect x="140" y="440" width="10" height="12"/>
    <rect x="120" y="460" width="10" height="12"/>
    <rect x="140" y="460" width="10" height="12"/>
    <rect x="120" y="480" width="10" height="12"/>
    <rect x="140" y="480" width="10" height="12"/>
    <!-- Building 4 windows -->
    <rect x="265" y="420" width="10" height="12"/>
    <rect x="285" y="420" width="10" height="12"/>
    <rect x="300" y="420" width="10" height="12"/>
    <rect x="265" y="440" width="10" height="12"/>
    <rect x="285" y="440" width="10" height="12"/>
    <rect x="300" y="440" width="10" height="12"/>
    <!-- Building 5 windows -->
    <rect x="355" y="450" width="10" height="12"/>
    <rect x="375" y="450" width="10" height="12"/>
    <rect x="355" y="470" width="10" height="12"/>
    <rect x="375" y="470" width="10" height="12"/>
  </g>
  <!-- Antenna/Spire details -->
  <rect x="130" y="400" width="4" height="20" fill="#2d2d5a"/>
  <rect x="280" y="380" width="5" height="20" fill="#2d2d5a"/>
  <circle cx="282" cy="378" r="3" fill="#FF5722"/>
</svg>
