<svg xmlns="http://www.w3.org/2000/svg" viewBox="0 0 400 800" preserveAspectRatio="xMidYMid slice">
  <!-- Distant city silhouette -->
  <g fill="#1a1a3e" opacity="0.6">
    <!-- Distant skyscrapers -->
    <rect x="0" y="550" width="30" height="250"/>
    <rect x="25" y="580" width="25" height="220"/>
    <rect x="45" y="520" width="35" height="280"/>
    <rect x="75" y="560" width="20" height="240"/>
    <rect x="90" y="540" width="30" height="260"/>
    <rect x="115" y="590" width="25" height="210"/>
    <rect x="135" y="510" width="40" height="290"/>
    <rect x="170" y="570" width="20" height="230"/>
    <rect x="185" y="530" width="35" height="270"/>
    <rect x="215" y="580" width="25" height="220"/>
    <rect x="235" y="500" width="45" height="300"/>
    <rect x="275" y="560" width="20" height="240"/>
    <rect x="290" y="540" width="35" height="260"/>
    <rect x="320" y="590" width="25" height="210"/>
    <rect x="340" y="520" width="30" height="280"/>
    <rect x="365" y="570" width="35" height="230"/>
  </g>
  <!-- Tiny distant windows -->
  <g fill="#FFE082" opacity="0.3">
    <rect x="50" y="540" width="3" height="3"/>
    <rect x="55" y="550" width="3" height="3"/>
    <rect x="140" y="530" width="3" height="3"/>
    <rect x="150" y="545" width="3" height="3"/>
    <rect x="245" y="520" width="3" height="3"/>
    <rect x="255" y="535" width="3" height="3"/>
    <rect x="350" y="540" width="3" height="3"/>
    <rect x="360" y="555" width="3" height="3"/>
  </g>
</svg>
