<svg xmlns="http://www.w3.org/2000/svg" viewBox="0 0 60 80">
  <defs>
    <linearGradient id="cityUmbrellaGrad" x1="0%" y1="0%" x2="0%" y2="100%">
      <stop offset="0%" style="stop-color:#5C6BC0"/>
      <stop offset="100%" style="stop-color:#3949AB"/>
    </linearGradient>
  </defs>
  <!-- Umbrella -->
  <ellipse cx="30" cy="12" rx="25" ry="12" fill="url(#cityUmbrellaGrad)"/>
  <rect x="28" y="10" width="4" height="35" fill="#5D4037"/>
  <!-- Handle curve -->
  <path d="M30,42 Q30,48 24,48" fill="none" stroke="#5D4037" stroke-width="3" stroke-linecap="round"/>
  <!-- Body (suit) -->
  <ellipse cx="30" cy="58" rx="10" ry="12" fill="#37474F"/>
  <!-- Head -->
  <circle cx="30" cy="40" r="8" fill="#FFCC80"/>
  <!-- Hair -->
  <ellipse cx="30" cy="35" rx="7" ry="4" fill="#5D4037"/>
  <!-- Eyes -->
  <circle cx="27" cy="39" r="1.5" fill="#333"/>
  <circle cx="33" cy="39" r="1.5" fill="#333"/>
  <!-- Smile -->
  <path d="M27,43 Q30,46 33,43" fill="none" stroke="#333" stroke-width="1" stroke-linecap="round"/>
  <!-- Tie -->
  <polygon points="30,48 27,52 30,68 33,52" fill="#E53935"/>
  <!-- Legs -->
  <rect x="24" y="68" width="5" height="10" fill="#37474F"/>
  <rect x="31" y="68" width="5" height="10" fill="#37474F"/>
  <!-- Shoes -->
  <ellipse cx="26.5" cy="78" rx="4" ry="2" fill="#212121"/>
  <ellipse cx="33.5" cy="78" rx="4" ry="2" fill="#212121"/>
</svg>
